<svg xmlns="http://www.w3.org/2000/svg" viewBox="0 0 512 512" width="512" height="512">
  <defs>
    <linearGradient id="bg" x1="0" y1="0" x2="0.5" y2="1">
      <stop offset="0%" stop-color="#1a1a2e"/>
      <stop offset="100%" stop-color="#12122a"/>
    </linearGradient>
    <linearGradient id="cobalt" x1="0" y1="0" x2="0" y2="1">
      <stop offset="0%" stop-color="#2b4c8c"/>
      <stop offset="100%" stop-color="#1e3668"/>
    </linearGradient>
    <linearGradient id="needleN" x1="0.5" y1="0" x2="0.5" y2="1">
      <stop offset="0%" stop-color="#d4a574"/>
      <stop offset="100%" stop-color="#c4935a"/>
    </linearGradient>
    <linearGradient id="needleS" x1="0.5" y1="0" x2="0.5" y2="1">
      <stop offset="0%" stop-color="#8a8a9a"/>
      <stop offset="100%" stop-color="#6a6a7a"/>
    </linearGradient>
    <filter id="shadow" x="-10%" y="-10%" width="120%" height="120%">
      <feDropShadow dx="0" dy="4" stdDeviation="10" flood-color="#000" flood-opacity="0.35"/>
    </filter>
    <filter id="innerShadow">
      <feGaussianBlur in="SourceAlpha" stdDeviation="3" result="blur"/>
      <feOffset dy="2" result="offsetBlur"/>
      <feComposite in="SourceGraphic" in2="offsetBlur" operator="over"/>
    </filter>
  </defs>

  <!-- App background -->
  <rect width="512" height="512" rx="112" fill="url(#bg)"/>

  <!-- Janome-choko (자노메잔) — top-down view -->
  <g filter="url(#shadow)">
    <!-- Cup outer rim — white ceramic -->
    <circle cx="256" cy="256" r="190" fill="#f0ece4"/>
    <!-- Rim highlight -->
    <circle cx="256" cy="256" r="190" fill="none" stroke="rgba(255,255,255,0.4)" stroke-width="2"/>

    <!-- Cobalt blue ring (자노메 pattern) -->
    <circle cx="256" cy="256" r="162" fill="url(#cobalt)"/>

    <!-- White inner circle -->
    <circle cx="256" cy="256" r="100" fill="#f0ece4"/>

    <!-- Inner cobalt blue center (bull's eye) -->
    <circle cx="256" cy="256" r="40" fill="url(#cobalt)"/>

    <!-- Subtle ceramic texture — light reflections -->
    <circle cx="256" cy="256" r="162" fill="none" stroke="rgba(255,255,255,0.08)" stroke-width="1"/>
    <circle cx="256" cy="256" r="100" fill="none" stroke="rgba(0,0,0,0.05)" stroke-width="1"/>
  </g>

  <!-- Compass needle (35° clockwise) -->
  <g transform="rotate(35, 256, 256)">
    <!-- North needle (gold — pointing up) -->
    <polygon points="256,90 244,256 268,256" fill="url(#needleN)"/>
    <!-- South needle (silver — pointing down) -->
    <polygon points="256,422 268,256 244,256" fill="url(#needleS)"/>

    <!-- Needle highlights -->
    <polygon points="256,90 244,256 256,256" fill="rgba(255,255,255,0.15)"/>
    <polygon points="256,422 268,256 256,256" fill="rgba(255,255,255,0.1)"/>

    <!-- Center pivot -->
    <circle cx="256" cy="256" r="14" fill="#d4a574"/>
    <circle cx="256" cy="256" r="10" fill="#1a1a2e"/>
    <circle cx="256" cy="256" r="5" fill="#d4a574"/>
  </g>
</svg>
